# xmcd
#
# Track frame offsets:
#	150
#	3830
#	19908
#	34912
#	64089
#	81503
#	99983
#	121954
#	141082
#	158030
#	177503
#	196743
#	214462
#	231627
#	248093
#
# Disc length: 3573 seconds
#
# Revision: 0
# Processed by: cddbd v1.5.2PL0 Copyright (c) Steve Scherf et al.
# Submitted via: EasyCDDAExtractor 10.0.1.1
#
DISCID=cf0df30f
DTITLE=10.kret - Fais brandir notre blason
DYEAR=2006
DGENRE=Rap
TTITLE0=intro
TTITLE1=dans notre collimateur
TTITLE2=viens pas tester
TTITLE3=destin dramatique
TTITLE4=fais peter les watts ft Soprano
TTITLE5=de nulle part
TTITLE6=gestes suicidaires
TTITLE7=sherif du monde
TTITLE8=j'veille sur mon prochain
TTITLE9=fais brandir notre blason
TTITLE10=under dans nos pages ft Stone black
TTITLE11=lueur d'espoir eteint ft L.e.a
TTITLE12=la war
TTITLE13=l'homme a abattre
TTITLE14=la pression ft S.krim
EXTD=
EXTT0=
EXTT1=
EXTT2=
EXTT3=
EXTT4=
EXTT5=
EXTT6=
EXTT7=
EXTT8=
EXTT9=
EXTT10=
EXTT11=
EXTT12=
EXTT13=
EXTT14=
PLAYORDER=
